<?xml version="1.0" encoding="utf-8"?>
<!-- Generator: Adobe Illustrator 27.1.1, SVG Export Plug-In . SVG Version: 6.00 Build 0)  -->
<svg version="1.1" id="Layer_1" xmlns="http://www.w3.org/2000/svg" xmlns:xlink="http://www.w3.org/1999/xlink" x="0px" y="0px"
	 viewBox="0 0 864 1152" style="enable-background:new 0 0 864 1152;" xml:space="preserve">
<g>
	<path d="M624.39,868.701c-3.814,12.611-9.562,24.184-16.26,35.298c-4.154,6.893-9.085,13.1-15.682,17.957
		c-2.9,2.135-5.707,4.216-9.306,5.282c1.35,2.946,3.133,5.523,5.553,7.452c5.756,4.589,11.504,9.224,17.568,13.384
		c20.723,14.214,42.368,26.892,64.765,38.29c4.763,2.424,9.399,5.097,14.137,7.573c1.466,0.766,3.053,1.321,4.622,1.866
		c1.6,0.556,2.134,1.73,1.924,3.234c-0.202,1.449-1.436,1.977-2.667,1.945c-1.409-0.037-2.872-0.268-4.2-0.732
		c-24.986-8.727-49.569-18.513-74.103-28.421c-9.069-3.662-18.008-7.623-26.333-12.852c-5.767-3.622-9.608-8.591-11.663-15.086
		c-2.789-8.812-4.545-17.819-5.498-26.995c-1.028-9.897-2.31-19.778-2.969-29.699c-0.828-12.458-1.436-24.947-1.577-37.429
		c-0.123-10.87,0.35-21.759,0.914-32.621c0.364-7,1.369-13.967,2.088-20.948c0.034-0.335,0.073-0.669,0.166-1.529
		c-1.386,1.918-2.499,3.428-3.582,4.96c-14.612,20.666-30.108,40.609-47.948,58.632c-9.371,9.467-19.2,18.393-30.078,26.153
		c-9.598,6.847-20.323,10.563-31.816,12.494c-15.236,2.559-30.583,3.93-46.008,4.541c-3.678,0.146-7.355,0.549-11.029,0.512
		c-6.782-0.067-13.581-0.291-20.194-1.999c-1.345-0.347-2.66-1.293-3.664-2.291c-0.54-0.536-0.825-2.085-0.444-2.61
		c0.541-0.746,1.804-1.361,2.754-1.355c6.098,0.036,12.205,0.57,18.29,0.359c20.321-0.704,40.533-2.421,60.524-6.463
		c12.508-2.529,22.872-8.794,32.342-16.945c13.927-11.986,26.302-25.458,37.946-39.631c12.883-15.682,24.4-32.364,35.884-49.069
		c2.423-3.524,2.841-7.736,3.911-11.716c3.67-13.644,2.937-27.474,1.912-41.358c-0.665-9.007-1.146-18.058-1.028-27.08
		c0.074-5.644,1.014-11.363,2.271-16.888c2.317-10.183,6.909-19.43,12.586-28.194c7.45-11.502,14.58-23.209,20.043-35.824
		c3.141-7.255,5.932-14.7,6.178-22.684c0.141-4.554-0.187-9.26-1.217-13.685c-1.923-8.265-4.511-16.375-6.969-25.07
		c-3.343,6.063-8.781,8.775-14.076,11.663c-1.39,0.758-1.923,1.727-1.489,3.397c0.459,1.764,0.677,3.621,0.757,5.448
		c0.175,3.989-1.856,6.667-5.402,8.229c-4.493,1.978-9.292,1.997-14.075,2.004c-1.378,0.002-2.76-0.216-4.133-0.16
		c-0.757,0.031-1.615,0.25-2.232,0.671c-15.135,10.33-32.048,14.807-50.171,15.116c-2.521,0.043-5.102-0.727-7.569-1.424
		c-1.143-0.323-2.208-1.246-3.084-2.122c-1.953-1.953-1.229-4.624,1.272-5.578c5.044-1.925,10.205-3.262,15.491-4.038
		c4.511-0.663,8.43-2.616,12.289-4.766c2.449-1.365,4.849-2.885,7.039-4.627c2.09-1.663,2.132-2.727,0.203-4.571
		c-2.313-2.211-4.899-4.136-7.694-6.458c-0.177,2.19-0.132,3.913-0.482,5.552c-1.481,6.923-7.462,12.028-14.981,12.771
		c-3.447,0.34-6.885,0.266-10.224-0.968c-7.492-2.769-11.114-9.758-8.97-17.465c0.353-1.267,0.751-2.522,1.302-4.365
		c-2.845,0.584-5.477,0.825-7.882,1.693c-2.954,1.066-5.73,2.634-8.561,4.031c-1.133,0.559-2.185,1.279-3.308,1.86
		c-3.799,1.966-5.576,1.366-7.593-2.828c-2.673,1.95-5.415,3.713-7.885,5.799c-6.378,5.389-11.727,11.706-16.211,18.75
		c-3.441,5.405-4.723,11.431-5.024,17.731c-0.025,0.518,0.013,1.043-0.058,1.553c-0.209,1.496-1.827,2.808-3.313,2.727
		c-1.202-0.065-2.215-1.451-2.174-3.06c0.119-4.715,0.257-9.43,0.396-14.145c0.129-4.372,0.215-8.747,0.42-13.116
		c0.235-5.013,0.717-9.998,2.725-14.685c2.583-6.031,7.153-10.371,12.235-14.254c11.191-8.553,23.992-13.569,37.52-16.936
		c3.626-0.902,7.297-1.639,10.969-2.335c1.102-0.209,2.297-0.152,3.419,0.006c3.118,0.437,4.344,3.067,2.694,5.761
		c-0.592,0.967-1.396,1.805-2.257,2.897c25.474-0.94,45.97,9.887,64.208,26.827c0-1.099,0.107-2.089-0.016-3.05
		c-1.815-14.168-4.064-28.24-8.759-41.816c-0.933-2.697-1.389-5.578-1.88-8.406c-0.857-4.934,0.482-9.364,3.482-13.306
		c6.307-8.286,11.105-17.341,13.915-27.393c1.902-6.803,3.719-13.63,5.541-20.454c0.576-2.159,3.184-3.009,4.949-1.431
		c1.323,1.183,2.51,2.54,3.632,3.922c3.63,4.469,7.193,8.993,10.803,13.478c0.71,0.882,1.513,1.689,2.768,2.461
		c0.392-2.7,0.847-5.392,1.164-8.1c1.076-9.196-1.937-17.425-6.009-25.427c-4.182-8.219-10.227-15.018-16.428-21.677
		c-6.172-6.628-12.688-12.928-20.542-17.575c-2.795-1.654-5.871-2.872-8.906-4.067c-2.644-1.041-5.483-0.996-8.137-0.088
		c-1.561,0.534-3.116,1.493-4.305,2.642c-7.787,7.519-15.596,15.022-23.17,22.754c-17.727,18.098-35.424,36.227-52.946,54.524
		c-14.624,15.272-28.352,31.34-41.294,48.069c-8.006,10.349-15.398,21.115-21.939,32.456c-0.308,0.534-0.59,1.083-0.686,1.886
		c0.603-0.357,1.214-0.701,1.807-1.074c10.919-6.862,21.738-13.89,32.798-20.516c4.71-2.822,9.871-4.922,14.931-7.11
		c1.88-0.813,4.056-0.939,6.097-1.379c0.066,0.148,0.133,0.296,0.199,0.443c-1.234,1.841-2.456,3.689-3.704,5.521
		c-5.119,7.519-10.219,15.052-15.377,22.544c-4.601,6.683-10.43,12.273-16.158,17.948c-7.828,7.756-13.864,16.864-19.918,25.997
		c-2.284,3.446-2.778,6.993-2.975,10.876c-0.446,8.793-0.978,17.585-1.682,26.361c-0.445,5.553-2.514,10.703-5.515,15.302
		c-5.028,7.704-10.426,15.167-15.669,22.731c-0.746,1.077-1.601,2.215-3.072,1.543c-1.557-0.713-1.754-2.421-1.394-3.734
		c0.663-2.418,1.501-4.874,2.764-7.021c1.648-2.803,2.934-5.642,3.734-8.813c1.42-5.627,3.228-11.154,4.724-16.763
		c0.435-1.63,0.358-3.397,0.516-5.102c-0.161-0.051-0.321-0.103-0.482-0.154c-0.278,0.565-0.567,1.125-0.832,1.696
		c-2.977,6.419-5.906,12.86-8.956,19.244c-0.758,1.587-1.824,3.049-2.885,4.466c-10.279,13.726-21.005,27.139-30.781,41.213
		c-12.074,17.381-22.176,35.937-29.713,55.797c-3.681,9.7-6.719,19.607-8.662,29.791c-0.455,2.386,0.302,5.142,0.999,7.586
		c4.628,16.236,12.724,30.661,23.295,43.738c8.289,10.255,17.97,19.115,27.98,27.636c5.172,4.403,10.351,8.799,15.52,13.206
		c1.507,1.285,1.913,2.814,1.155,4.197c-0.753,1.372-2.373,1.957-4.238,1.11c-1.651-0.749-3.122-1.9-4.654-2.903
		c-12.089-7.918-24.238-15.755-35.292-25.125c-10.41-8.825-19.787-18.612-27.623-29.825c-0.156-0.223-0.333-0.43-0.77-0.991
		c0,1.032-0.027,1.687,0.004,2.339c0.403,8.339,0.898,16.675,1.181,25.019c0.113,3.319-0.205,6.656-0.407,9.979
		c-0.036,0.59-0.414,1.188-0.73,1.726c-5.248,8.94-11.999,16.601-20.073,23.055c-1.987,1.588-4.404,2.682-6.721,3.803
		c-5.332,2.579-10.778,5.063-16.637,5.989c-6.286,0.993-12.677,1.322-19.024,1.916c-1.201,0.112-2.414,0.166-3.62,0.144
		c-3.151-0.057-4.387-1.203-4.702-4.555c-1.099,0.361-2.174,0.629-3.176,1.063c-1.48,0.64-2.918,0.789-4.243-0.224
		c-1.354-1.034-1.531-2.525-1.171-4.065c0.273-1.17,0.633-2.333,1.086-3.446c3.359-8.247,6.763-16.475,10.128-24.719
		c2.282-5.591,4.527-11.197,6.782-16.799c0.211-0.524,0.373-1.068,0.629-1.808c-1.545,0.174-2.905,0.299-4.257,0.486
		c-2.253,0.311-3.581-0.891-2.977-3.061c0.531-1.908,1.365-3.773,2.33-5.51c3.24-5.833,6.736-11.526,9.88-17.408
		c5.072-9.489,8.324-19.712,11.293-29.993c2.935-10.161,5.803-20.367,8.006-30.702c0.921-4.32,0.652-9.127-0.107-13.535
		c-4.576-26.578-11.523-52.559-20.764-77.895c-6.351-17.411-15.592-33.327-25.981-48.608c-2.975-4.376-5.889-8.798-8.686-13.289
		c-1.444-2.319-2.64-4.803-3.822-7.273c-1.343-2.808-0.89-4.378,1.76-6.56c-1.065-1.333-2.1-2.7-3.213-3.999
		c-0.947-1.105-1.353-2.296-0.718-3.647c0.595-1.266,1.746-1.528,3.049-1.496c0.892,0.022,1.788-0.1,3.187-0.19
		c-1.691-1.124-2.999-1.922-4.228-2.828c-1.479-1.091-2.995-2.166-4.309-3.44c-2.05-1.987-1.875-4.174,0.216-6.152
		c1.753-1.658,3.456-3.369,5.154-5.084c0.4-0.404,0.718-0.901,1.028-1.384c1.915-2.991,2.751-5.971,1.887-9.732
		c-2.567-11.165-3.473-22.52-2.435-33.972c0.275-3.032,0.716-6.05,1.143-9.066c0.085-0.6,0.291-1.439,0.72-1.688
		c1.604-0.929,1.413-2.388,1.28-3.778c-0.699-7.331-1.44-14.658-2.204-21.982c-0.747-7.154-1.628-14.296-2.279-21.458
		c-0.389-4.28,0.234-8.497,1.536-12.612c1.332-4.206,1.66-8.524,1.741-12.938c0.086-4.693,0.867-9.37,1.202-14.064
		c0.199-2.79,0.201-5.601,0.145-8.399c-0.043-2.123-0.197-4.262-0.537-6.355c-0.203-1.251-0.72-2.507-1.338-3.626
		c-2.724-4.936-5.615-9.781-8.284-14.746c-1.336-2.486-2.311-5.167-2.075-8.097c0.055-0.681,0.061-1.461,0.397-2.005
		c0.731-1.185,0.397-1.937-0.565-2.76c-2.944-2.515-3.608-5.669-2.231-9.211c2.625-6.75,2.055-13.677,1.353-20.637
		c-0.317-3.147-0.424-6.315-0.718-9.465c-0.077-0.828-0.415-1.66-0.769-2.427c-1.594-3.446-3.245-6.866-4.854-10.305
		c-0.316-0.675-0.585-1.381-0.789-2.098c-0.78-2.748-1.178-5.452,1.344-7.703c-1.26-1.16-2.486-2.202-3.612-3.341
		c-2.638-2.671-2.634-5.289-0.056-8.043c0.039-0.042,0.07-0.099,0.118-0.125c4.097-2.291,5.579-6.492,7.592-10.326
		c7.771-14.795,17.607-28.208,27.776-41.398c2.242-2.908,4.313-5.948,6.59-8.827c0.682-0.863,1.702-1.637,2.728-2.018
		c4.085-1.516,8.233-2.862,12.359-4.266c0.587-0.2,1.183-0.372,1.927-0.604c-0.228-0.387-0.383-0.666-0.553-0.937
		c-1.494-2.386-0.992-4.687,1.628-5.88c2.765-1.259,5.694-2.159,8.552-3.215c0.518-0.191,1.039-0.376,1.835-0.664
		c-1.531-1.032-2.893-1.856-4.146-2.822c-1.084-0.836-2.201-1.718-2.998-2.804c-0.444-0.605-0.581-1.821-0.266-2.478
		c0.271-0.563,1.362-0.783,2.128-1.041c0.624-0.21,1.401-0.082,1.946-0.393c6.095-3.475,12.787-4.769,19.643-5.501
		c0.261-0.028,0.521-0.069,1.237-0.165c-1.363-0.945-2.39-1.629-3.387-2.352c-3.326-2.413-3.487-5.703-0.167-8.111
		c2.834-2.056,5.906-3.784,8.879-5.648c0.776-0.486,1.573-0.939,2.419-1.443c-0.219-0.57-0.499-1.075-0.601-1.613
		c-0.238-1.262,0.186-2.194,1.383-2.85c6.623-3.63,13.945-4.09,21.225-4.742c1.831-0.164,3.671-0.221,6-0.356
		c-1.404-1.267-2.534-2.338-3.718-3.345c-1.841-1.567-3.743-3.062-5.572-4.643c-1.505-1.301-1.265-2.274,0.088-3.706
		c5.31-5.622,12.075-5.695,18.938-4.957c6.463,0.695,12.877,1.848,19.323,2.714c1.44,0.193,2.928,0.028,4.589,0.028
		c-0.944-4.29-2.282-8.158-4.72-11.59c-0.333-0.469-0.704-0.924-0.953-1.436c-1.041-2.147,0.265-4.401,2.65-4.386
		c1.115,0.007,2.302,0.3,3.327,0.756c3.986,1.774,7.919,3.665,11.953,5.55c-0.097-1.745-0.185-3.533-0.3-5.318
		c-0.097-1.51,0.51-2.633,1.942-3.093c1.39-0.447,2.449,0.124,3.51,1.182c1.058,1.054,2.399,1.958,3.78,2.526
		c3.176,1.305,6.452,2.366,9.687,3.526c-0.024,0.149-0.048,0.298-0.073,0.447c0.269-0.184,0.568-0.338,0.804-0.558
		c7.33-6.834,16.422-10.009,25.886-12.308c3.791-0.921,5.551,1.134,4.606,4.97c-0.079,0.321-0.146,0.645-0.268,1.185
		c5.494-3.478,11.003-6.423,16.975-8.394c2.289-0.755,4.644-1.308,6.949-2.016c2.074-0.637,4.16-1.263,6.171-2.067
		c3.084-1.232,4.478-0.941,6.694,1.519c2.348,2.607,4.619,5.308,7.18,7.692c4.312,4.014,9.426,5.046,15.073,3.308
		c2.143-0.659,4.269-1.375,6.424-1.99c4.051-1.155,7.748-0.449,11.01,2.268c1.239,1.032,2.376,2.209,3.712,3.09
		c0.637,0.42,1.772,0.644,2.439,0.369c4.416-1.82,8.514-1.418,12.482,1.228c0.601,0.401,1.535,0.299,2.313,0.442
		c0.661,0.122,1.579,0.038,1.925,0.44c0.863,1.002,1.887,0.915,2.974,0.912c10.197-0.026,20.47-0.314,30.421,2.171
		c8.191,2.046,16.186,4.894,24.227,7.514c5.666,1.846,11.329,3.48,17.391,3.095c1.525-0.097,3.288-0.177,4.106,1.53
		c0.804,1.677,0.146,3.257-0.845,4.692c-0.684,0.99-1.392,1.964-2.218,3.127c1.71,0.526,3.346,0.953,4.927,1.529
		c3.939,1.433,7.865,2.905,11.771,4.426c1.008,0.393,1.964,0.963,2.872,1.561c1.226,0.809,1.998,1.927,1.733,3.493
		c-0.267,1.579-1.385,2.278-2.819,2.669c-4.432,1.208-8.858,2.441-13.286,3.669c-0.323,0.09-0.637,0.212-0.955,0.319
		c-0.036,0.169-0.072,0.338-0.109,0.507c1.58,0.42,3.139,1.069,4.745,1.221c8.079,0.763,16.164,1.442,24.052,3.498
		c2.962,0.772,4.246,1.984,3.704,4.033c-0.313,1.183-1.455,2.146-2.251,3.245c5.233,1.709,10.096,4.726,14.421,8.544
		c2.005,1.77,3.924,3.769,5.384,5.991c1.97,2.999,0.895,5.653-2.384,7.074c-0.364,0.158-0.718,0.341-1.408,0.672
		c1.867,1.26,3.488,2.484,5.228,3.505c6.649,3.9,13.424,7.593,19.972,11.655c3.153,1.956,5.966,4.487,8.803,6.911
		c0.919,0.785,1.61,1.979,2.082,3.119c1.14,2.753-0.441,5.083-3.395,5.358c-1.519,0.142-3.022,0.466-4.789,0.749
		c1.841,1.587,3.458,2.925,5.008,4.337c0.848,0.773,1.621,1.64,2.362,2.519c2.858,3.391,2,5.959-2.548,6.967
		c0.619,0.829,1.204,1.564,1.738,2.335c2.072,2.992,3.314,6.204,4.247,9.82c1.249,4.838,1.203,9.477,0.944,14.32
		c-0.199,3.719,1.246,7.208,2.893,10.553c3.595,7.3,6.617,14.802,8.158,22.851c1.888,9.864,2.162,19.819,1.33,29.762
		c-1.22,14.568-2.764,29.11-4.315,43.647c-0.456,4.279-1.389,8.508-2.135,12.754c-0.108,0.612-0.213,1.453-0.629,1.742
		c-1.787,1.243-1.715,3.265-2.353,4.994c-2.05,5.553-3.924,11.184-6.278,16.607c-1.202,2.767-1.449,5.491-1.469,8.363
		c-0.074,10.669,1.995,21.066,4.148,31.431c1.47,7.079,1.372,14.176,1.087,21.322c-0.164,4.103,0.306,8.153,1.733,12.056
		c0.802,2.193,1.843,4.379,2.163,6.654c0.946,6.716,1.403,13.504,2.414,20.208c0.655,4.342,1.452,8.783,3.059,12.833
		c2.962,7.466,3.881,15.114,3.585,23.011c-0.07,1.859-1.214,2.648-3.895,2.753c0.067,0.604,0.16,1.194,0.193,1.786
		c0.282,5.048,0.604,10.094,0.789,15.145c0.041,1.115-0.15,2.417-0.721,3.329c-0.642,1.026-1.758,2.285-2.803,2.423
		c-2.452,0.325-3.023,1.384-3.174,3.39c-0.796,10.613-3.031,20.948-6.302,31.052c-1.059,3.27-2.556,6.397-3.845,9.592
		c-0.277,0.687-0.533,1.384-0.77,2.085c-0.452,1.338-1.295,2.14-2.778,2.147c-1.478,0.007-2.306-0.711-2.724-2.129
		c-1.342-4.556-2.747-9.094-4.051-13.386c-1.5,0.347-2.749,1.014-3.78,0.767c-1.032-0.247-1.911-1.342-2.736-2.184
		c-0.84-0.856-1.533-1.857-2.384-2.91c-0.309,0.469-0.562,0.829-0.791,1.203c-1.251,2.044-3.071,2.808-5.43,2.564
		c-0.522-0.054-1.133,0.224-1.625,0.493c-1.745,0.956-3.374,2.201-5.215,2.871c-0.876,0.319-2.134-0.409-3.397-0.705
		c-0.969,1.417-2.145,3.31-3.51,5.056c-0.69,0.884-1.636,1.65-2.615,2.21c-2.171,1.244-4.218,0.246-5.117-2.316
		c-0.503-1.434-1.063-2.848-1.597-4.272c-0.161,0.022-0.323,0.044-0.484,0.066c-0.44,1.391-0.839,2.796-1.327,4.17
		c-3.331,9.375-6.804,18.702-9.98,28.129c-1.927,5.721-3.623,11.555-3.304,17.724c0.359,6.956,5.026,10.94,11.987,10.154
		c6.656-0.752,11.817-4.178,15.572-9.544c2.756-3.939,5.035-8.212,7.56-12.315c0.296-0.48,0.948-1.243,1.185-1.16
		c0.627,0.219,1.481,0.754,1.596,1.3c0.423,2.009,0.706,4.066,0.822,6.117c0.755,13.337,1.165,26.7,2.254,40.009
		c1.018,12.442,2.562,24.849,4.222,37.225c0.83,6.19,2.731,12.233,3.613,18.419c1.03,7.223,1.633,14.518,2.127,21.802
		c0.412,6.082,0.536,12.193,0.505,18.29c-0.011,2.303-0.666,4.645-1.327,6.881c-0.264,0.894-1.218,1.923-2.076,2.191
		c-0.62,0.193-1.6-0.768-2.709-1.373c-0.674,3.417-1.601,7.03-2.06,10.701c-0.671,5.362-1.007,10.766-1.489,16.152
		c-0.02,0.229-0.077,0.454-0.124,0.68C629.838,870.36,627.505,871.223,624.39,868.701z M362.26,415.807
		c-0.991-0.245-1.817-0.43-2.634-0.653c-19.337-5.276-39.038-8.261-59.044-9.187c-8.749-0.405-16.81,1.684-23.501,7.667
		c-2.958,2.645-5.815,5.413-8.592,8.247c-4.965,5.065-9.926,10.136-16.149,13.682c-1.796,1.023-3.107,2.001-3.644,4.252
		c-0.633,2.65-2.106,5.088-3.052,7.677c-1.502,4.108-1.389,4.264,2.495,6.025c2.849,1.292,3.826,3.105,3.283,6.242
		c-0.216,1.246-0.617,2.46-0.827,3.707c-0.399,2.372-0.938,4.748-1.023,7.137c-0.132,3.692,2.008,6.541,3.825,9.583
		c7.992,13.38,12.089,28.027,13.521,43.469c0.911,9.822-0.241,19.544-1.545,29.256c-0.355,2.643-0.64,5.295-0.969,8.04
		c7.243,0.858,14.175,2.323,20.448-2.288c-1.448-3.69-1.072-7.344,0.332-10.726c2.907-7.003,5.783-14.06,9.313-20.758
		c15.14-28.726,31.389-56.821,48.965-84.132c4.265-6.627,8.795-13.085,13.251-19.588C358.46,420.905,360.342,418.442,362.26,415.807
		z M492.453,272.186c-0.171-0.065-0.342-0.129-0.514-0.194c-0.222,0.317-0.45,0.631-0.665,0.953
		c-3.486,5.215-6.835,10.527-10.493,15.618c-3.494,4.863-7.303,9.491-12.136,13.162c-1.172,0.89-2.311,1.29-3.65,0.666
		c-1.439-0.67-1.634-1.962-1.462-3.369c0.049-0.4,0.129-0.796,0.202-1.192c0.938-5.035,1.893-10.066,2.798-15.106
		c0.128-0.715,0.018-1.472,0.018-2.21c-0.524,0.168-0.757,0.366-0.834,0.612c-1.454,4.668-4.767,8.088-7.894,11.603
		c-0.643,0.723-1.808,1.229-2.787,1.336c-0.945,0.104-1.407,0.379-1.829,1.172c-1.759,3.301-3.561,6.58-5.384,9.846
		c-0.388,0.695-0.794,1.602-1.428,1.892c-1.478,0.677-2.643,1.559-3.639,2.858c-0.325,0.424-1.624,0.555-2.139,0.249
		c-0.486-0.288-0.903-1.46-0.706-2.014c2.124-5.976,2.915-12.215,3.434-18.452c0.71-8.539,1.01-17.112,1.44-25.673
		c0.024-0.477-0.362-0.974-0.558-1.462c-0.365,0.427-0.887,0.797-1.071,1.292c-1.26,3.395-2.34,6.861-3.684,10.221
		c-3.011,7.527-6.104,15.022-9.263,22.488c-0.499,1.18-1.385,2.278-2.322,3.173c-1.518,1.45-3.679,1.398-4.897-0.182
		c-0.892-1.157-1.867-1.523-2.85-1.404c-1.229,1.913-2.258,3.685-3.459,5.332c-1.004,1.378-2.978,1.517-4.287,0.331
		c-0.798-0.724-1.546-1.589-2.053-2.533c-3.157-5.874-6.474-11.679-9.274-17.721c-2.303-4.969-3.963-10.236-5.975-15.55
		c-0.034,0.381-0.09,0.633-0.072,0.879c0.474,6.485,0.953,12.969,1.436,19.453c0.306,4.113,1.848,8.18,0.175,12.363
		c-0.654,1.634-1.952,2.218-3.269,0.985c-0.704-0.658-1.274-1.483-1.805-2.298c-5.359-8.227-9.593-17.03-13.317-26.094
		c-0.285-0.695-0.68-1.345-1.024-2.015c-0.163,0.038-0.326,0.076-0.489,0.115c-0.028,0.469-0.114,0.944-0.074,1.407
		c0.972,11.423,2.462,22.77,4.862,33.99c1.033,4.831,2.001,9.676,2.982,14.518c0.451,2.226-1.087,3.409-2.57,4.49
		c-1.246,0.908-2.422,0.064-3.509-0.576c-5.625-3.314-10.383-7.597-14.264-12.851c-0.769-1.041-1.543-2.078-2.314-3.118
		c1.443,4.145,2.997,8.199,5.767,11.654c1.075,1.341,2.21,2.692,2.969,4.213c1.331,2.667-0.447,5.251-3.368,4.779
		c-1.561-0.252-3.242-1.049-4.43-2.097c-4.178-3.687-8.227-7.528-12.199-11.44c-1.768-1.741-3.234-3.789-4.837-5.698
		c-0.048,0.032-0.096,0.064-0.144,0.096c0.532,1.157,1.064,2.314,1.569,3.413c-1.263,0.226-2.336,0.418-3.441,0.615
		c0.86,3.041,0,4.175-2.841,3.816c-1.45-0.183-2.877-0.732-4.25-1.279c-1.486-0.592-2.897-1.374-4.567-2.183
		c1.204,3.3,2.303,6.263,3.364,9.241c0.655,1.84,0.199,3.301-1.199,4.072c-1.516,0.836-4.261,0.201-5.296-1.204
		c-0.264-0.359-0.553-0.731-0.91-0.984c-4.266-3.025-8.548-6.028-12.824-9.039c-0.526-0.371-1.041-0.757-1.561-1.136
		c0.368,1.545,0.926,2.861,1.621,4.101c2.757,4.918,5.546,9.819,8.347,14.713c0.925,1.616,0.529,3.381-0.969,3.399
		c-1.652,0.019-3.398-0.206-4.941-0.768c-1.536-0.56-2.944-1.572-4.284-2.555c-6.304-4.624-11.725-10.183-16.752-16.135
		c-2.748-3.254-5.397-6.592-8.264-10.105c0.12,0.486,0.156,0.709,0.23,0.918c3.947,11.102,9.306,21.304,18.486,29.083
		c1.185,1.004,1.161,2.212,0.059,3.264c-0.414,0.395-0.832,0.786-1.247,1.18c-0.868,0.823-1.591,0.899-2.391-0.19
		c-1.806-2.459-3.652-4.893-5.598-7.241c-0.546-0.658-1.496-0.981-2.261-1.458c0.027,0.917-0.27,2.022,0.136,2.718
		c1.787,3.069,3.554,6.195,5.736,8.98c5.324,6.795,11.94,12.112,19.618,16.073c0.844,0.436,1.805,0.646,2.712,0.961
		c-0.199-0.745-0.561-1.098-0.939-1.434c-3.912-3.483-7.744-7.064-11.776-10.403c-1.948-1.613-2.488-3.598-2.654-5.876
		c-0.109-1.505,0.329-2.788,1.795-3.416c1.385-0.593,2.585-0.121,3.575,0.958c0.311,0.339,0.674,0.639,0.944,1.008
		c0.683,0.937,1.412,1.415,2.717,1.153c0.715-0.144,1.672,0.317,2.357,0.758c1.009,0.648,1.841,1.564,2.804,2.293
		c4.511,3.417,9.041,6.808,13.564,10.209c0.143-0.16,0.285-0.319,0.428-0.479c-0.237-0.427-0.489-0.847-0.707-1.284
		c-2.421-4.829-4.951-9.609-7.194-14.519c-0.841-1.841-1.204-3.966-1.429-6.002c-0.208-1.878,1.343-3.192,3.21-2.85
		c0.961,0.176,1.902,0.762,2.722,1.346c2.858,2.034,5.655,4.155,8.489,6.224c0.422,0.308,0.922,0.511,1.589,0.873
		c-0.978-2.17-1.982-3.993-2.62-5.935c-0.549-1.67-0.525-3.466,1.08-4.727c1.571-1.234,3.24-0.939,4.859-0.088
		c0.813,0.427,1.56,0.978,2.338,1.47c3.115,1.967,6.139,4.102,9.374,5.846c2.646,1.427,5.544,2.387,8.33,3.554
		c0.088-0.155,0.176-0.311,0.264-0.466c-0.268-0.48-0.703-0.939-0.766-1.444c-0.111-0.894,0.005-1.817,0.026-2.727
		c0.894,0.042,1.928-0.194,2.659,0.173c3.132,1.572,6.17,3.33,9.253,5c0.918,0.497,1.872,0.927,3.235,1.597
		c-1.124-1.91-2.016-3.32-2.8-4.788c-0.68-1.275-0.665-2.586,0.396-3.675c1.062-1.091,2.382-1.079,3.674-0.501
		c0.781,0.349,1.48,0.884,2.21,1.345c2.075,1.31,4.147,2.625,6.302,3.99c0.314-0.996,0.334-1.977,0.835-2.476
		c1.473-1.471,0.737-2.964,0.307-4.46c-0.937-3.26-0.475-4.325,2.645-5.675c-0.033-0.654-0.084-1.339-0.099-2.025
		c-0.088-4.027-0.224-8.054-0.224-12.081c0-1.813,0.61-3.468,2.545-4.109c1.598-0.529,3.047,0.246,4.419,2.275
		c0.805,1.191,1.514,2.449,2.253,3.684c3.14,5.252,6.483,10.366,10.986,14.573c2.054,1.919,4.327,3.605,6.5,5.397
		c-0.024-2.935-0.369-5.488-0.626-8.05c-0.135-1.349,0.516-2.376,1.761-2.883c1.277-0.519,2.504-0.321,3.483,0.723
		c0.787,0.839,1.52,1.729,2.287,2.588c0.672,0.752,1.28,0.956,1.814-0.168c0.718-1.513,1.972-2.056,3.568-1.725
		c1.55,0.322,2.029,1.572,2.274,2.931c0.205,1.137,0.339,2.288,0.562,3.837c0.56-0.969,0.875-1.575,1.245-2.147
		c1.531-2.366,3.011-4.77,4.646-7.064c1.03-1.445,2.547-2.196,4.379-1.805c1.822,0.389,2.558,1.829,2.989,3.455
		c0.486,1.834,0.854,3.702,1.397,5.518c0.652,2.181,1.224,2.445,2.961,0.954c2.306-1.98,4.364-4.246,6.554-6.363
		c0.865-0.836,1.705-1.752,2.715-2.371c2.472-1.512,4.968-0.127,5.137,2.766c0.048,0.82,0.007,1.644,0.007,2.817
		c0.694-0.514,1.086-0.735,1.392-1.042c2.884-2.896,5.694-5.87,8.654-8.685c1.316-1.251,2.816-2.42,4.433-3.219
		c2.503-1.235,5.049-0.149,6.096,2.442c0.532,1.317,0.821,2.749,1.082,4.155c0.598,3.221,0.914,6.507,1.712,9.674
		c0.875,3.475,1.757,3.638,4.443,1.21c1.15-1.04,2.03-2.447,3.307-3.254c0.941-0.594,2.392-0.82,3.495-0.601
		c1.304,0.258,1.702,1.584,1.593,2.912c-0.086,1.051-0.192,2.101-0.323,3.513c2.188-1.654,4.035-3.211,6.049-4.507
		c1.06-0.682,2.432-1.303,3.628-1.243c1.667,0.083,3.28,0.777,5.051,0.523c0.483-0.069,1.067,0.739,1.642,1.083
		c0.38,0.228,0.873,0.559,1.234,0.479c2.899-0.645,4.967,0.393,6.287,2.982c0.758,1.486,1.852,1.933,3.407,1.351
		c0.7-0.262,1.481-0.363,2.12-0.723c3.755-2.115,7.503-4.245,11.177-6.494c0.388-0.238,0.53-1.38,0.322-1.926
		c-0.156-0.408-1.124-0.834-1.616-0.727c-1.68,0.368-3.31,0.968-4.958,1.479c-1.972,0.611-3.856,0.771-5.343-1.242
		c-1.766,1.68-3.821,1.457-5.91,1.309c-2.142-0.151-3.172-1.211-2.877-3.356c0.108-0.787,0.366-1.571,0.67-2.309
		c3.135-7.623,5.808-15.393,7.5-23.476c0.267-1.278,0.452-2.572,0.675-3.859c-1.763,1.672-3.026,3.527-4.471,5.227
		c-3.052,3.589-6.103,7.188-9.348,10.599c-1.558,1.637-3.677,2.734-6.065,2.365c-1.355-0.21-2.629-0.948-3.952-1.452
		c-1.395,1.321-2.799,2.764-4.328,4.06c-1.146,0.971-2.572,1.058-3.9,0.392c-1.325-0.665-1.782-1.903-1.652-3.343
		c0.108-1.2,0.177-2.415,0.419-3.591c0.695-3.381,1.543-6.731,2.183-10.121c0.397-2.105,0.524-4.26,0.772-6.393
		c-0.152-0.048-0.304-0.095-0.456-0.143c-1.159,1.475-2.206,3.058-3.501,4.402c-2.343,2.432-4.674,4.925-7.319,6.999
		c-1.787,1.401-4.161,1.587-6.56,0.987C489.068,293.98,491.287,283.194,492.453,272.186z M275.909,604.382
		c-1.934,0.695-3.525,1.303-5.14,1.84c-4.819,1.601-9.595,1.664-14.331-0.391c-1.836-0.797-3.71-1.52-5.604-2.168
		c-3.484-1.192-3.643-1.101-5.378,2.222c-0.293,0.56-0.607,1.124-0.797,1.722c-1.491,4.702-2.842,9.453-4.464,14.109
		c-1.111,3.188-2.235,6.32-1.322,9.725c1.026,3.825,1.653,7.864,3.342,11.383c5.9,12.286,11.924,24.528,18.386,36.525
		c8.411,15.615,13.317,32.143,14.59,49.803c0.97,13.46-0.355,26.802-1.874,40.141c-0.521,4.571-0.981,9.149-1.515,13.718
		c-0.188,1.607,1.015,2.3,2.026,2.898c0.371,0.219,1.512-0.457,2.024-0.992c0.586-0.612,1.092-1.483,1.227-2.308
		c0.334-2.04,0.353-4.13,0.644-6.179c2.954-20.802,5.818-41.618,8.962-62.391c1.618-10.688,4.83-20.929,9.825-30.596
		c7.58-14.67,14.998-29.423,22.493-44.137c3.543-6.955,7.106-13.901,10.66-20.853c-0.112-0.031-0.233-0.109-0.317-0.079
		c-0.323,0.115-0.637,0.26-0.95,0.402c-7.906,3.571-14.875,8.562-21.093,14.527c-13.63,13.074-27.118,26.297-40.652,39.472
		c-1.543,1.502-3.192,2.92-5.457,2.002c-2.326-0.943-2.582-3.211-2.294-5.295c0.642-4.66,1.171-9.385,2.402-13.905
		c3.612-13.265,7.55-26.44,11.35-39.654C273.728,612.187,274.766,608.439,275.909,604.382z M337.794,637.875
		c0.106,0.067,0.213,0.134,0.319,0.201c0.731-0.61,1.483-1.196,2.188-1.835c3.555-3.22,6.151-7.179,8.262-11.408
		c4.795-9.606,11.16-17.922,19.213-25.045c2.364-2.091,4.24-4.829,5.975-7.507c1.341-2.069,1.074-3.028-0.766-4.693
		c-2.81-2.543-5.608-5.158-8.724-7.285c-2.843-1.941-6.1-3.274-9.175-4.875c-0.07,0.144-0.141,0.288-0.211,0.432
		c1.66,1.404,3.411,2.714,4.961,4.231c3.032,2.968,3.318,5.931,0.95,9.456c-2.781,4.141-6.531,7.102-11.278,8.691
		c-1.123,0.376-2.394,0.679-3.531,0.526c-0.858-0.115-1.831-0.857-2.354-1.6c-0.663-0.94,0.018-1.737,0.847-2.464
		c2.409-2.113,4.484-4.576,5.416-7.666c1.407-4.667,0.244-7.368-3.076-9.207c-1.81-1.002-3.608-2.04-5.48-2.912
		c-3.012-1.402-6.219-2.069-9.812-2.433c0.349,0.539,0.488,0.78,0.651,1.003c4.695,6.434,2.18,16.851-4.622,20.677
		c-6.67,3.753-13.447,3.854-20.019-0.061c-6.114-3.643-7.588-10.773-3.749-16.797c0.702-1.101,1.563-2.1,2.359-3.159
		c-0.14-0.04-0.264-0.123-0.353-0.095c-7.362,2.341-13.356,6.577-17.742,12.972c-0.269,0.393-0.211,1.421,0.108,1.737
		c1.585,1.573,3.204,3.148,5.001,4.463c6.399,4.685,13.744,7.206,21.415,8.747c4.326,0.869,8.748,1.273,13.135,1.821
		c1.756,0.219,2.177,0.547,1.507,2.155c-0.961,2.306-2.19,4.5-3.319,6.735c-0.182,0.361-0.438,0.686-0.505,0.79
		c3.561-0.236,7.149-0.589,10.745-0.675c2.944-0.071,5.461,2.562,5.104,5.478c-0.587,4.783-1.448,9.534-2.257,14.288
		C338.672,634.35,338.193,636.106,337.794,637.875z M232.643,595.147c0.118,6.084,0.775,11.634,2.872,17.371
		c1.569-5.799,3.016-11.147,4.585-16.945C237.645,595.433,235.251,595.296,232.643,595.147z"/>
	<path d="M459.022,788.252c-3.147,0.338-6.163,0.674-9.182,0.973c-0.507,0.05-1.099,0.081-1.529-0.129
		c-0.596-0.292-1.559-0.9-1.505-1.231c0.117-0.707,0.645-1.638,1.258-1.912c1.402-0.628,2.977-0.854,4.439-1.367
		c0.855-0.3,1.626-0.837,2.435-1.267c-0.075-0.18-0.15-0.361-0.224-0.541c-0.921,0.186-1.857,0.318-2.762,0.566
		c-11.434,3.136-22.971,5.795-34.746,7.273c-11.93,1.497-23.887,1.668-35.846,0.298c-3.646-0.418-7.281-0.939-10.927-1.354
		c-0.5-0.057-1.039,0.229-1.56,0.357c0.335,0.485,0.565,1.169,1.027,1.409c0.794,0.412,1.731,0.551,2.609,0.798
		c2.542,0.716,5.102,1.379,7.622,2.164c1.429,0.445,2.485,1.364,2.146,3.06c-0.331,1.656-1.539,2.16-3.104,2.047
		c-1.257-0.091-2.516-0.165-3.905,0.016c0.926,0.46,1.861,0.904,2.776,1.385c1.067,0.561,2.172,1.075,3.161,1.753
		c1.474,1.01,2.012,2.578,1.397,3.871c-0.713,1.498-2.073,1.518-3.423,1.258c-4.668-0.901-9.372-1.674-13.978-2.832
		c-7.144-1.795-14.293-3.747-20.28-8.329c-2.263-1.732-4.473-3.663-6.244-5.875c-2.553-3.188-2.104-7.751-0.243-11.388
		c2.561-5.004,7.203-7.152,11.754-9.377c11.762-5.752,24.323-9.108,37.005-12.155c5.046-1.212,9.539,0.2,13.876,1.953
		c4.995,2.019,9.374,1.15,13.938-0.949c4.192-1.928,8.581-3.652,13.222-3.574c3.62,0.061,7.287,0.834,10.824,1.726
		c10.51,2.648,20.839,5.912,30.651,10.574c2.832,1.346,5.374,3.301,8.06,4.959c0.516,0.319,1.073,0.758,1.63,0.79
		c1.629,0.093,2.238,1.104,2.367,2.469c0.273,2.889-0.319,5.615-1.905,8.074c-3.402,5.275-8.427,8.592-13.907,11.279
		c-6.174,3.028-12.576,5.4-19.53,5.844c-1.8,0.115-3.591,0.034-4.952-1.451c-1.367-1.492-1.175-2.348,0.606-3.16
		c5.173-2.358,10.329-4.755,15.486-7.15C458.05,788.878,458.499,788.56,459.022,788.252z M395.639,775.473c0-0.108,0-0.217,0-0.325
		c-2.647,0-5.295-0.043-7.94,0.024c-0.894,0.022-1.804,0.251-2.66,0.53c-0.327,0.107-0.523,0.616-0.779,0.943
		c0.334,0.238,0.641,0.619,1.007,0.688c1.184,0.224,2.389,0.332,3.586,0.487c5.232,0.68,10.391,1.966,15.749,1.506
		c7.505-0.645,15.028-1.079,22.53-1.749c2.733-0.244,5.434-0.878,8.137-1.401c0.453-0.088,0.84-0.518,1.258-0.789
		c-0.295-0.452-0.491-1.132-0.904-1.313c-1.146-0.501-2.363-1.026-3.587-1.13c-4.812-0.409-9.634-0.745-14.459-0.942
		c-3.743-0.153-7.263,0.806-10.576,2.613c-0.915,0.499-2.047,0.778-3.094,0.821C401.156,775.547,398.396,775.473,395.639,775.473z"
		/>
	<path d="M291.92,916.446c-0.448,7.638-0.816,15.283-1.366,22.914c-0.578,8.025-4.387,14.531-9.87,20.202
		c-8.654,8.951-18.515,16.399-28.852,23.257c-11.093,7.36-22.641,13.916-34.768,19.414c-3.552,1.61-7.248,2.901-10.879,4.337
		c-0.213,0.084-0.424,0.185-0.645,0.24c-1.05,0.262-2.173,0.434-2.722-0.752c-0.558-1.204,0.083-2.087,1.157-2.702
		c2.195-1.258,4.404-2.494,6.573-3.796c11.441-6.864,22.929-13.612,33.344-22.077c14.418-11.719,24.117-26.262,28.954-44.28
		c2.813-10.478,6.58-20.7,9.929-31.033c0.529-1.632,1.155-3.234,1.666-4.872c0.617-1.979,1.985-3.215,3.604-3.143
		c1.647,0.073,2.764,1.14,3.135,3.333c0.315,1.863,0.518,3.764,0.551,5.653c0.078,4.43,0.025,8.861,0.025,13.292
		C291.811,916.437,291.865,916.442,291.92,916.446z"/>
	<path d="M384.132,682.922c5.629,0.001,11.775,4.718,13.47,10.681c0.496,1.747,0.898,3.57,0.974,5.373
		c0.087,2.069-0.765,2.844-2.759,3.318c-2.351,0.56-4.667,0.335-6.648-0.958c-2.538-1.656-4.919-3.565-7.287-5.465
		c-1.893-1.519-3.679-2.98-6.336-3.104c-2.116-0.099-3.215-2.632-2.004-4.282C376.081,685.026,379.325,682.769,384.132,682.922z"/>
	<path d="M431.468,682.914c4.291-0.185,7.434,2.005,9.87,5.419c1.247,1.747,0,4.367-2.267,4.46
		c-2.449,0.101-4.189,1.373-5.968,2.749c-2.272,1.757-4.493,3.593-6.867,5.202c-2.251,1.526-4.794,2.198-7.552,1.607
		c-2.256-0.483-3.006-1.215-2.838-3.552c0.349-4.86,2.451-8.92,6.142-12.113C424.668,684.367,427.675,682.798,431.468,682.914z"/>
</g>
</svg>
